<svg width="752" height="241" viewBox="0 0 752 241" fill="none" xmlns="http://www.w3.org/2000/svg">
<path d="M309.094 91.3594C309.094 95.5312 308.578 99.2578 307.547 102.539C306.516 105.82 305.109 108.727 303.328 111.258C301.594 113.742 299.578 115.875 297.281 117.656C294.984 119.438 292.57 120.891 290.039 122.016C287.555 123.141 285.023 123.961 282.445 124.477C279.914 124.992 277.523 125.25 275.273 125.25H233.93V106.969H275.273C277.617 106.781 279.727 106.312 281.602 105.562C283.523 104.766 285.164 103.711 286.523 102.398C287.883 101.086 288.938 99.5156 289.688 97.6875C290.438 95.8125 290.812 93.7031 290.812 91.3594V83.0625C290.578 80.7656 290.086 78.6562 289.336 76.7344C288.586 74.8125 287.555 73.1719 286.242 71.8125C284.977 70.4531 283.43 69.3984 281.602 68.6484C279.773 67.8516 277.664 67.4531 275.273 67.4531H234.07C231.633 67.4531 229.781 68.0859 228.516 69.3516C227.25 70.6172 226.617 72.4453 226.617 74.8359V150H208.336V74.8359C208.336 70.1484 209.18 66.1641 210.867 62.8828C212.602 59.6016 214.734 56.9531 217.266 54.9375C219.844 52.9219 222.633 51.4688 225.633 50.5781C228.633 49.6406 231.398 49.1719 233.93 49.1719H275.273C279.398 49.1719 283.102 49.7109 286.383 50.7891C289.664 51.8203 292.547 53.2266 295.031 55.0078C297.562 56.7422 299.695 58.7578 301.43 61.0547C303.211 63.3516 304.664 65.7656 305.789 68.2969C306.961 70.7812 307.805 73.3125 308.32 75.8906C308.836 78.4219 309.094 80.8125 309.094 83.0625V91.3594ZM410.175 150H326.784C325.472 150 324.253 149.766 323.128 149.297C322.003 148.828 321.019 148.195 320.175 147.398C319.378 146.555 318.745 145.57 318.277 144.445C317.808 143.32 317.573 142.102 317.573 140.789V49.1719H335.855V131.719H410.175V150ZM515.334 150H497.053V125.25H432.788V150H414.506V99.5859C414.506 92.2266 415.772 85.4531 418.303 79.2656C420.834 73.0781 424.35 67.7578 428.85 63.3047C433.35 58.8516 438.67 55.3828 444.811 52.8984C450.952 50.4141 457.655 49.1719 464.92 49.1719H506.123C507.389 49.1719 508.584 49.4062 509.709 49.875C510.834 50.3438 511.819 51 512.663 51.8438C513.506 52.6875 514.163 53.6719 514.631 54.7969C515.1 55.9219 515.334 57.1172 515.334 58.3828V150ZM432.788 106.969H497.053V67.4531H464.92C464.358 67.4531 463.163 67.5469 461.334 67.7344C459.553 67.875 457.467 68.2734 455.077 68.9297C452.733 69.5859 450.248 70.5938 447.623 71.9531C444.998 73.3125 442.584 75.1875 440.381 77.5781C438.178 79.9688 436.35 82.9688 434.897 86.5781C433.491 90.1406 432.788 94.4766 432.788 99.5859V106.969ZM625.486 82.9219C625.486 87.0938 624.947 90.8203 623.869 94.1016C622.838 97.3828 621.455 100.289 619.72 102.82C617.986 105.305 615.947 107.438 613.603 109.219C611.306 111 608.916 112.477 606.431 113.648C603.947 114.773 601.416 115.594 598.838 116.109C596.306 116.625 593.916 116.883 591.666 116.883H584.283V150H565.861V116.883H558.548C556.298 116.883 553.884 116.625 551.306 116.109C548.775 115.594 546.244 114.773 543.713 113.648C541.228 112.477 538.838 111 536.541 109.219C534.244 107.438 532.205 105.305 530.423 102.82C528.689 100.289 527.283 97.3828 526.205 94.1016C525.173 90.7734 524.658 87.0469 524.658 82.9219V49.1719H542.939V82.9219C542.939 85.3125 543.314 87.4688 544.064 89.3906C544.814 91.2656 545.869 92.8828 547.228 94.2422C548.588 95.6016 550.228 96.6562 552.15 97.4062C554.119 98.1094 556.298 98.4609 558.689 98.4609H591.666C593.4 98.1797 595.181 97.8281 597.009 97.4062C598.838 96.9375 600.502 96.1641 602.002 95.0859C603.502 94.0078 604.744 92.5078 605.728 90.5859C606.713 88.6641 607.205 86.1094 607.205 82.9219V49.1719H625.486V82.9219Z" fill="black"/>
<path d="M170.672 85.1719L201.469 49.1719H226.43L183.047 99.7266L226.148 150H201.328L170.672 114.281L140.156 150H115.266L158.297 99.7266L115.125 49.1719H139.875L170.672 85.1719Z" fill="#FD5750"/>
</svg>
